# xmcd
#
# Track frame offsets:
#	150
#	26332
#	58885
#	72262
#	92190
#	120502
#	159615
#	185030
#	208117
#	228170
#	231987
#	259057
#	288710
#
# Disc length: 4078 seconds
#
# Revision: 1
# Processed by: cddbd v1.5.1PL0 Copyright (c) Steve Scherf et al.
# Submitted via: CDex 1.50Beta5
#
DISCID=c00fec0d
DTITLE=さだまさし - 随想録 Disc 2
DYEAR=1999
DGENRE=
TTITLE0=雨どりや
TTITLE1=関白宣言
TTITLE2=トーク(4)
TTITLE3=木根川橋
TTITLE4=療養所
TTITLE5=トーク(5)
TTITLE6=転宅
TTITLE7=掌
TTITLE8=飛梅
TTITLE9=トーク(6)
TTITLE10=つゆのあとさき
TTITLE11=ひき潮
TTITLE12=epilogue
EXTD=
EXTT0=
EXTT1=
EXTT2=
EXTT3=
EXTT4=
EXTT5=
EXTT6=
EXTT7=
EXTT8=
EXTT9=
EXTT10=
EXTT11=
EXTT12=
PLAYORDER=
